<?xml version="1.0" encoding="UTF-8"?>
<svg width="275px" height="276px" viewBox="0 0 275 276" version="1.1" xmlns="http://www.w3.org/2000/svg" xmlns:xlink="http://www.w3.org/1999/xlink">
    <!-- Generator: Sketch 54.1 (76490) - https://sketchapp.com -->
    <title>Group</title>
    <desc>Created with Sketch.</desc>
    <g id="Page-1" stroke="none" stroke-width="1" fill="none" fill-rule="evenodd">
        <g id="coord" transform="translate(-572.000000, -285.000000)">
            <g id="Group" transform="translate(574.000000, 281.000000)">
                <g id="Group-181" transform="translate(16.000000, 31.148438)">
                    <polygon id="Fill-164" fill="#FFFFFF" points="0 0 50 0 50 50 0 50"></polygon>
                    <polygon id="Fill-166" fill="#FFFFFF" points="50 0 100 0 100 50 50 50"></polygon>
                    <polygon id="Fill-167" fill-opacity="0.5" fill="#56C1FF" points="100 0 150 0 150 50 100 50"></polygon>
                    <polygon id="Fill-168" fill="#FFFFFF" points="150 0 200 0 200 50 150 50"></polygon>
                    <polygon id="Fill-169" fill="#FFFFFF" points="0 50 50 50 50 100 0 100"></polygon>
                    <polygon id="Fill-170" fill="#FFFFFF" points="50 50 100 50 100 100 50 100"></polygon>
                    <polygon id="Fill-171" fill="#FFFFFF" points="100 50 150 50 150 100 100 100"></polygon>
                    <polygon id="Fill-172" fill-opacity="0.5" fill="#88FA4E" points="150 50 200 50 200 100 150 100"></polygon>
                    <polygon id="Fill-173" fill="#FFFFFF" points="0 100 50 100 50 150 0 150"></polygon>
                    <polygon id="Fill-174" fill="#FFFFFF" points="50 100 100 100 100 150 50 150"></polygon>
                    <polygon id="Fill-175" fill="#FFFFFF" points="100 100 150 100 150 150 100 150"></polygon>
                    <polygon id="Fill-176" fill="#FFFFFF" points="150 100 200 100 200 150 150 150"></polygon>
                    <polygon id="Fill-177" fill="#FFFFFF" points="0 150 50 150 50 200 0 200"></polygon>
                    <polygon id="Fill-178" fill="#D6D5D5" points="50 150 100 150 100 200 50 200"></polygon>
                    <polygon id="Fill-179" fill="#FFFFFF" points="100 150 150 150 150 200 100 200"></polygon>
                    <polygon id="Fill-180" fill="#FFFFFF" points="150 150 200 150 200 200 150 200"></polygon>
                </g>
                <g id="Group-212" transform="translate(15.000000, 30.148438)" stroke="#000000">
                    <path d="M51,0.5 L51,201.5" id="Stroke-182"></path>
                    <path d="M101,0.5 L101,201.5" id="Stroke-184"></path>
                    <path d="M151,0.5 L151,201.5" id="Stroke-186"></path>
                    <path d="M0.5,51 L51,51" id="Stroke-188"></path>
                    <path d="M51,51 L201.5,51" id="Stroke-190"></path>
                    <path d="M0.5,101 L51,101" id="Stroke-192"></path>
                    <path d="M51,101 L201.5,101" id="Stroke-194"></path>
                    <path d="M0.5,151 L51,151" id="Stroke-196"></path>
                    <path d="M51,151 L201.5,151" id="Stroke-198"></path>
                    <path d="M1,0.5 L1,201.5" id="Stroke-200"></path>
                    <path d="M201,0.5 L201,201.5" id="Stroke-202"></path>
                    <path d="M0.5,1 L51,1" id="Stroke-204"></path>
                    <path d="M51,1 L201.5,1" id="Stroke-206"></path>
                    <path d="M0.5,201 L51,201" id="Stroke-208"></path>
                    <path d="M51,201 L201.5,201" id="Stroke-210"></path>
                </g>
                <polyline id="Stroke-213" stroke="#EE220C" points="42.2503 180.796638 137.654139 85.3927981 138.007693 85.0392447"></polyline>
                <polygon id="Fill-215" fill="#EE220C" points="139.7754 87.5141375 141.8967 81.1501375 135.5327 83.2715375"></polygon>
                <path d="M44.018,179.028937 C45.1896,180.200437 45.1896,182.099937 44.018,183.271537 C42.8464,184.443138 40.9469,184.443138 39.7754,183.271537 C38.6038,182.099937 38.6038,180.200437 39.7754,179.028937 C40.9469,177.857337 42.8464,177.857337 44.018,179.028937 Z" id="Fill-217" fill="#EE220C"></path>
                <polyline id="Stroke-218" stroke="#EE220C" points="93.3409874 177.26115 93.6945408 176.907597 165.60108 105.001058"></polyline>
                <polygon id="Fill-219" fill="#EE220C" points="91.5732 174.786237 89.4519 181.150238 95.8159 179.028937"></polygon>
                <polyline id="Stroke-220" stroke="#EE220C" points="142.4574 81.5037375 161.358485 100.404822 161.712038 100.758376"></polyline>
                <polygon id="Fill-221" fill="#EE220C" points="159.2371 102.526137 165.6011 104.647537 163.4798 98.2835375"></polygon>
                <polyline id="Stroke-222" stroke="#EE220C" points="142.4573 81.5037375 214.420125 153.466562 214.773678 153.820116"></polyline>
                <polygon id="Fill-223" fill="#EE220C" points="212.2988 155.587938 218.6628 157.709238 216.5415 151.345338"></polygon>
                <polyline id="Stroke-224" stroke="#004D80" points="15.6011 31.1502375 15.6011 266.150238 15.6011 266.650238"></polyline>
                <polygon id="Fill-225" fill="#004D80" points="12.6011 266.150228 15.6011 272.150228 18.6011 266.150228"></polygon>
                <polyline id="Stroke-226" stroke="#004D80" points="15.6011 31.1502375 262.1924 31.1502375 262.6924 31.1502375"></polyline>
                <polygon id="Fill-227" fill="#004D80" points="262.1923 34.1502375 268.1923 31.1502375 262.1923 28.1502375"></polygon>
                <path d="M267.466797,9.16210938 C267.785809,9.50065273 268.026692,9.83919102 268.189453,10.1777344 C268.306641,10.4121105 268.498697,11.0273388 268.765625,12.0234375 L269.625,10.734375 C269.852866,10.4218734 270.129556,10.1240249 270.455078,9.84082031 C270.780601,9.55761577 271.067056,9.36393281 271.314453,9.25976562 C271.470704,9.19466113 271.643228,9.16210938 271.832031,9.16210938 C272.111981,9.16210938 272.33496,9.23697842 272.500977,9.38671875 C272.666993,9.53645908 272.75,9.71874893 272.75,9.93359375 C272.75,10.1809908 272.701172,10.35026 272.603516,10.4414062 C272.421223,10.6041675 272.212892,10.6855469 271.978516,10.6855469 C271.841796,10.6855469 271.695313,10.6562503 271.539062,10.5976562 C271.233071,10.4934891 271.027995,10.4414062 270.923828,10.4414062 C270.767577,10.4414062 270.582032,10.5325512 270.367188,10.7148438 C269.96354,11.0533871 269.481774,11.7076774 268.921875,12.6777344 L269.722656,16.0371094 C269.846355,16.5514349 269.95052,16.859049 270.035156,16.9599609 C270.119792,17.0608729 270.204427,17.1113281 270.289062,17.1113281 C270.425782,17.1113281 270.585286,17.0364591 270.767578,16.8867188 C271.125653,16.5872381 271.431639,16.196617 271.685547,15.7148438 L272.027344,15.890625 C271.617185,16.658858 271.096357,17.2968725 270.464844,17.8046875 C270.106769,18.0911473 269.804038,18.234375 269.556641,18.234375 C269.192055,18.234375 268.902345,18.0292989 268.6875,17.6191406 C268.550781,17.3652331 268.26758,16.271494 267.837891,14.3378906 C266.822261,16.1022224 266.008467,17.2382787 265.396484,17.7460938 C264.999347,18.0716162 264.615236,18.234375 264.244141,18.234375 C263.983723,18.234375 263.746095,18.1399749 263.53125,17.9511719 C263.374999,17.807942 263.296875,17.6158866 263.296875,17.375 C263.296875,17.1601552 263.368489,16.9811205 263.511719,16.8378906 C263.654949,16.6946607 263.830728,16.6230469 264.039062,16.6230469 C264.247397,16.6230469 264.468749,16.7272125 264.703125,16.9355469 C264.872397,17.0852872 265.002604,17.1601562 265.09375,17.1601562 C265.171875,17.1601562 265.272786,17.1080734 265.396484,17.0039062 C265.702475,16.7565092 266.119138,16.2226604 266.646484,15.4023438 C267.173831,14.5820271 267.518879,13.9895852 267.681641,13.625 C267.277993,12.0429608 267.059896,11.2063807 267.027344,11.1152344 C266.877603,10.6920552 266.682293,10.392579 266.441406,10.2167969 C266.20052,10.0410147 265.845705,9.953125 265.376953,9.953125 C265.227213,9.953125 265.054688,9.95963535 264.859375,9.97265625 L264.859375,9.62109375 L267.466797,9.16210938 Z" id="x" fill="#004D80" fill-rule="nonzero"></path>
                <path d="M3.83203125,263.964844 C4.09765758,264.417971 4.28124949,264.841795 4.3828125,265.236328 C4.48437551,265.630861 4.58593699,266.406244 4.6875,267.5625 L5.203125,273.328125 C5.67187734,272.765622 6.35155805,271.875006 7.2421875,270.65625 C7.67187715,270.062497 8.20312184,269.253911 8.8359375,268.230469 C9.21875191,267.605466 9.45312457,267.16797 9.5390625,266.917969 C9.58593773,266.792968 9.609375,266.664063 9.609375,266.53125 C9.609375,266.445312 9.58203152,266.375 9.52734375,266.320312 C9.47265598,266.265625 9.33007928,266.201172 9.09960938,266.126953 C8.86913947,266.052734 8.67773514,265.916017 8.52539062,265.716797 C8.37304611,265.517577 8.296875,265.289064 8.296875,265.03125 C8.296875,264.710936 8.39062406,264.453126 8.578125,264.257812 C8.76562594,264.062499 8.99999859,263.964844 9.28125,263.964844 C9.62500172,263.964844 9.91796754,264.10742 10.1601562,264.392578 C10.402345,264.677736 10.5234375,265.07031 10.5234375,265.570312 C10.5234375,266.187503 10.3125021,266.892574 9.890625,267.685547 C9.46874789,268.47852 8.65625602,269.695304 7.453125,271.335938 C6.24999398,272.976571 4.7929773,274.765615 3.08203125,276.703125 C1.90233785,278.039069 1.0273466,278.880858 0.45703125,279.228516 C-0.113284102,279.576174 -0.601560469,279.75 -1.0078125,279.75 C-1.25000121,279.75 -1.46288971,279.658204 -1.64648438,279.474609 C-1.83007904,279.291015 -1.921875,279.078126 -1.921875,278.835938 C-1.921875,278.531248 -1.79492314,278.253908 -1.54101562,278.003906 C-1.28710811,277.753905 -1.01172023,277.628906 -0.71484375,277.628906 C-0.558592969,277.628906 -0.429688008,277.664062 -0.328125,277.734375 C-0.265624688,277.773438 -0.197265996,277.884765 -0.123046875,278.068359 C-0.0488277539,278.251954 0.0195309375,278.375 0.08203125,278.4375 C0.121093945,278.476563 0.167968477,278.496094 0.22265625,278.496094 C0.269531484,278.496094 0.351561914,278.457032 0.46875,278.378906 C0.898439648,278.11328 1.39843465,277.691409 1.96875,277.113281 C2.71875375,276.347652 3.2734357,275.722659 3.6328125,275.238281 L2.9765625,267.808594 C2.86718695,266.582025 2.70312609,265.835939 2.484375,265.570312 C2.26562391,265.304686 1.89844008,265.171875 1.3828125,265.171875 C1.21874918,265.171875 0.925783359,265.195312 0.50390625,265.242188 L0.3984375,264.808594 L3.83203125,263.964844 Z" id="y" fill="#004D80" fill-rule="nonzero"></path>
                <path d="M67.9042969,19 L61.3125,19 L61.3125,18.6386719 C64.6718918,15.6959488 66.8919217,13.3880292 67.9726562,11.7148438 C68.4739608,10.9401003 68.7246094,10.1263063 68.7246094,9.2734375 C68.7246094,8.59635078 68.5162781,8.04459849 68.0996094,7.61816406 C67.6829406,7.19172964 67.1425814,6.97851562 66.4785156,6.97851562 C65.5605423,6.97851562 64.8053415,7.41796436 64.2128906,8.296875 L63.8710938,8.140625 C64.2031267,7.30077705 64.6881479,6.64811431 65.3261719,6.18261719 C65.9641959,5.71712007 66.6542932,5.484375 67.3964844,5.484375 C68.2363323,5.484375 68.9427055,5.77245806 69.515625,6.34863281 C70.0885445,6.92480757 70.375,7.62304277 70.375,8.44335938 C70.375,9.01627891 70.2740896,9.54687256 70.0722656,10.0351562 C69.7597641,10.7968788 69.1835979,11.6497349 68.34375,12.59375 C67.067702,14.0390697 65.365245,15.7024646 63.2363281,17.5839844 L66.5566406,17.5839844 C67.0904975,17.5839844 67.5299462,17.4733084 67.875,17.2519531 C68.2200538,17.0305979 68.4674472,16.7343769 68.6171875,16.3632812 L69.0078125,16.3632812 L67.9042969,19 Z" id="2" fill="#004D80" fill-rule="nonzero"></path>
                <path d="M120.736328,5.7578125 L118.207031,14.46875 L119.789062,14.46875 L119.4375,15.6796875 L117.835938,15.6796875 L116.810547,19.234375 L115.375,19.234375 L116.410156,15.6796875 L111.625,15.6796875 L112.035156,14.3125 L119.994141,5.7578125 L120.736328,5.7578125 Z M118.568359,8.27734375 L112.875,14.46875 L116.791016,14.46875 L118.568359,8.27734375 Z" id="4" fill="#004D80" fill-rule="nonzero"></path>
                <path d="M171.507812,5.484375 L171.507812,5.86523438 C170.394526,6.12565234 169.313807,6.67414946 168.265625,7.51074219 C167.217443,8.34733491 166.299483,9.41991533 165.511719,10.7285156 C166.214847,10.429035 166.787758,10.2792969 167.230469,10.2792969 C168.057296,10.2792969 168.762041,10.578773 169.344727,11.1777344 C169.927412,11.7766957 170.21875,12.5839793 170.21875,13.5996094 C170.21875,15.1556067 169.717453,16.4837185 168.714844,17.5839844 C167.712235,18.6842503 166.631516,19.234375 165.472656,19.234375 C164.417963,19.234375 163.618818,18.8453815 163.075195,18.0673828 C162.531573,17.2893841 162.259766,16.389328 162.259766,15.3671875 C162.259766,14.0325454 162.569007,12.7158268 163.1875,11.4169922 C163.805993,10.1181576 164.6442,9.00325986 165.702148,8.07226562 C166.760096,7.14127139 167.858718,6.4544293 168.998047,6.01171875 C169.675134,5.75130078 170.511714,5.57552129 171.507812,5.484375 Z M165.042969,11.5488281 C164.111975,13.5345151 163.646484,15.2011651 163.646484,16.5488281 C163.646484,17.2454462 163.822264,17.7939433 164.173828,18.1943359 C164.525392,18.5947286 164.929034,18.7949219 165.384766,18.7949219 C166.133467,18.7949219 166.831702,18.2496799 167.479492,17.1591797 C168.127282,16.0686794 168.451172,14.8040437 168.451172,13.3652344 C168.451172,12.5970014 168.262372,12.0045594 167.884766,11.5878906 C167.50716,11.1712219 167.051435,10.9628906 166.517578,10.9628906 C166.289712,10.9628906 166.073243,11.0003251 165.868164,11.0751953 C165.663085,11.1500655 165.388023,11.3079415 165.042969,11.5488281 Z" id="6" fill="#004D80" fill-rule="nonzero"></path>
                <path d="M217.748047,11.5878906 C218.37305,12.2649773 218.830402,12.8997366 219.120117,13.4921875 C219.409832,14.0846384 219.554688,14.6770804 219.554688,15.2695312 C219.554688,16.3307345 219.151046,17.256832 218.34375,18.0478516 C217.536454,18.8388711 216.540371,19.234375 215.355469,19.234375 C214.294266,19.234375 213.430016,18.9121126 212.762695,18.2675781 C212.095374,17.6230437 211.761719,16.871098 211.761719,16.0117188 C211.761719,15.276038 212.033526,14.553389 212.577148,13.84375 C213.120771,13.134111 214.147779,12.4505241 215.658203,11.7929688 C215.078773,11.0833298 214.686524,10.4973981 214.481445,10.0351562 C214.276366,9.57291436 214.173828,9.11393457 214.173828,8.65820312 C214.173828,7.79231338 214.497718,7.04687812 215.145508,6.421875 C215.793298,5.79687188 216.608719,5.484375 217.591797,5.484375 C218.529302,5.484375 219.294268,5.75455459 219.886719,6.29492188 C220.47917,6.83528916 220.775391,7.46679326 220.775391,8.18945312 C220.775391,8.90560254 220.536135,9.5566377 220.057617,10.1425781 C219.579099,10.7285186 218.80925,11.2102846 217.748047,11.5878906 Z M217.367188,11.1777344 C218.070316,10.9368478 218.615558,10.5429715 219.00293,9.99609375 C219.390301,9.44921602 219.583984,8.82096709 219.583984,8.11132812 C219.583984,7.4472623 219.396812,6.92480659 219.022461,6.54394531 C218.64811,6.16308403 218.158206,5.97265625 217.552734,5.97265625 C216.973304,5.97265625 216.504559,6.15494609 216.146484,6.51953125 C215.78841,6.88411641 215.609375,7.35611689 215.609375,7.93554688 C215.609375,8.37174697 215.703775,8.77538877 215.892578,9.14648438 C216.166017,9.69336211 216.657549,10.3704387 217.367188,11.1777344 Z M216.019531,12.1933594 C215.049474,12.5970072 214.315432,13.1813113 213.817383,13.9462891 C213.319333,14.7112668 213.070312,15.5331987 213.070312,16.4121094 C213.070312,17.1217483 213.290037,17.6930317 213.729492,18.1259766 C214.168948,18.5589214 214.746741,18.7753906 215.462891,18.7753906 C216.205082,18.7753906 216.830076,18.5149766 217.337891,17.9941406 C217.845706,17.4733047 218.099609,16.8515661 218.099609,16.1289062 C218.099609,15.5820285 217.951499,15.00749 217.655273,14.4052734 C217.359048,13.8030569 216.813806,13.0657596 216.019531,12.1933594 Z" id="8" fill="#004D80" fill-rule="nonzero"></path>
                <path d="M7.9140625,4.484375 C8.7474,4.484375 9.44889038,4.83267881 10.0185547,5.52929688 C10.588219,6.22591494 10.8730469,7.32616436 10.8730469,8.83007812 C10.8730469,10.1191471 10.6614604,11.4342381 10.2382812,12.7753906 C9.81510205,14.1165432 9.21940488,15.2786409 8.45117188,16.2617188 C7.83918965,17.0364622 7.19792002,17.5963524 6.52734375,17.9414062 C6.1367168,18.1367197 5.68424736,18.234375 5.16992188,18.234375 C4.32356348,18.234375 3.61556274,17.8860712 3.04589844,17.1894531 C2.47623413,16.4928351 2.19140625,15.3893305 2.19140625,13.8789062 C2.19140625,12.3880134 2.47786172,10.8906325 3.05078125,9.38671875 C3.72135752,7.62889746 4.57746875,6.29427539 5.61914062,5.3828125 C6.30273779,4.78385117 7.0677041,4.484375 7.9140625,4.484375 Z M7.92382812,4.9921875 C7.54622207,4.9921875 7.16373892,5.140298 6.77636719,5.43652344 C6.38899546,5.73274888 5.98860884,6.34960469 5.57519531,7.28710938 C5.16178179,8.22461406 4.76627793,9.43228428 4.38867188,10.9101562 C3.90038818,12.8437597 3.65625,14.4908786 3.65625,15.8515625 C3.65625,16.5286492 3.80273291,17.0348291 4.09570312,17.3701172 C4.38867334,17.7054053 4.7434875,17.8730469 5.16015625,17.8730469 C5.55729365,17.8730469 5.89583193,17.7428398 6.17578125,17.4824219 C6.92448291,16.7792934 7.56575254,15.5781335 8.09960938,13.8789062 C8.96549912,11.0989444 9.3984375,8.83985244 9.3984375,7.1015625 C9.3984375,6.37890264 9.25195459,5.8466814 8.95898438,5.50488281 C8.66601416,5.16308423 8.32096553,4.9921875 7.92382812,4.9921875 Z" id="0" fill="#004D80" fill-rule="nonzero"></path>
                <path d="M7.90429688,84 L1.3125,84 L1.3125,83.6386719 C4.6718918,80.6959488 6.89192168,78.3880292 7.97265625,76.7148438 C8.47396084,75.9401003 8.72460938,75.1263063 8.72460938,74.2734375 C8.72460938,73.5963508 8.51627812,73.0445985 8.09960938,72.6181641 C7.68294063,72.1917296 7.14258145,71.9785156 6.47851563,71.9785156 C5.56054229,71.9785156 4.8053415,72.4179644 4.21289062,73.296875 L3.87109375,73.140625 C4.20312666,72.3007771 4.68814785,71.6481143 5.32617188,71.1826172 C5.9641959,70.7171201 6.65429316,70.484375 7.39648438,70.484375 C8.23633232,70.484375 8.94270547,70.7724581 9.515625,71.3486328 C10.0885445,71.9248076 10.375,72.6230428 10.375,73.4433594 C10.375,74.0162789 10.2740896,74.5468726 10.0722656,75.0351562 C9.75976406,75.7968788 9.18359795,76.6497349 8.34375,77.59375 C7.06770195,79.0390697 5.36524502,80.7024646 3.23632812,82.5839844 L6.55664062,82.5839844 C7.09049746,82.5839844 7.52994619,82.4733084 7.875,82.2519531 C8.22005381,82.0305979 8.46744717,81.7343769 8.6171875,81.3632812 L9.0078125,81.3632812 L7.90429688,84 Z" id="2" fill="#004D80" fill-rule="nonzero"></path>
                <path d="M10.7363281,120.757812 L8.20703125,129.46875 L9.7890625,129.46875 L9.4375,130.679688 L7.8359375,130.679688 L6.81054688,134.234375 L5.375,134.234375 L6.41015625,130.679688 L1.625,130.679688 L2.03515625,129.3125 L9.99414062,120.757812 L10.7363281,120.757812 Z M8.56835938,123.277344 L2.875,129.46875 L6.79101562,129.46875 L8.56835938,123.277344 Z" id="4" fill="#004D80" fill-rule="nonzero"></path>
                <path d="M11.5078125,170.484375 L11.5078125,170.865234 C10.3945257,171.125652 9.31380732,171.674149 8.265625,172.510742 C7.21744268,173.347335 6.29948311,174.419915 5.51171875,175.728516 C6.21484727,175.429035 6.7877582,175.279297 7.23046875,175.279297 C8.0572958,175.279297 8.76204136,175.578773 9.34472656,176.177734 C9.92741177,176.776696 10.21875,177.583979 10.21875,178.599609 C10.21875,180.155607 9.71745293,181.483718 8.71484375,182.583984 C7.71223457,183.68425 6.63151621,184.234375 5.47265625,184.234375 C4.41796348,184.234375 3.61881782,183.845381 3.07519531,183.067383 C2.5315728,182.289384 2.25976562,181.389328 2.25976562,180.367188 C2.25976562,179.032545 2.56900732,177.715827 3.1875,176.416992 C3.80599268,175.118158 4.64420044,174.00326 5.70214844,173.072266 C6.76009644,172.141271 7.85871826,171.454429 8.99804688,171.011719 C9.67513359,170.751301 10.5117138,170.575521 11.5078125,170.484375 Z M5.04296875,176.548828 C4.11197451,178.534515 3.64648438,180.201165 3.64648438,181.548828 C3.64648438,182.245446 3.82226387,182.793943 4.17382812,183.194336 C4.52539238,183.594729 4.92903418,183.794922 5.38476562,183.794922 C6.13346729,183.794922 6.83170249,183.24968 7.47949219,182.15918 C8.12728188,181.068679 8.45117188,179.804044 8.45117188,178.365234 C8.45117188,177.597001 8.26237168,177.004559 7.88476562,176.587891 C7.50715957,176.171222 7.05143496,175.962891 6.51757812,175.962891 C6.2897124,175.962891 6.07324321,176.000325 5.86816406,176.075195 C5.66308491,176.150065 5.38802256,176.307942 5.04296875,176.548828 Z" id="6" fill="#004D80" fill-rule="nonzero"></path>
                <path d="M7.74804688,226.587891 C8.37305,227.264977 8.8304022,227.899737 9.12011719,228.492188 C9.40983218,229.084638 9.5546875,229.67708 9.5546875,230.269531 C9.5546875,231.330734 9.1510457,232.256832 8.34375,233.047852 C7.5364543,233.838871 6.54037051,234.234375 5.35546875,234.234375 C4.29426553,234.234375 3.43001636,233.912113 2.76269531,233.267578 C2.09537427,232.623044 1.76171875,231.871098 1.76171875,231.011719 C1.76171875,230.276038 2.03352593,229.553389 2.57714844,228.84375 C3.12077095,228.134111 4.14777891,227.450524 5.65820312,226.792969 C5.07877314,226.08333 4.68652446,225.497398 4.48144531,225.035156 C4.27636616,224.572914 4.17382812,224.113935 4.17382812,223.658203 C4.17382812,222.792313 4.49771812,222.046878 5.14550781,221.421875 C5.79329751,220.796872 6.60871904,220.484375 7.59179688,220.484375 C8.52930156,220.484375 9.29426787,220.754555 9.88671875,221.294922 C10.4791696,221.835289 10.7753906,222.466793 10.7753906,223.189453 C10.7753906,223.905603 10.5361352,224.556638 10.0576172,225.142578 C9.57909917,225.728519 8.8092501,226.210285 7.74804688,226.587891 Z M7.3671875,226.177734 C8.07031602,225.936848 8.61555796,225.542971 9.00292969,224.996094 C9.39030142,224.449216 9.58398438,223.820967 9.58398438,223.111328 C9.58398438,222.447262 9.39681177,221.924807 9.02246094,221.543945 C8.64811011,221.163084 8.15820615,220.972656 7.55273438,220.972656 C6.97330439,220.972656 6.50455908,221.154946 6.14648438,221.519531 C5.78840967,221.884116 5.609375,222.356117 5.609375,222.935547 C5.609375,223.371747 5.7037751,223.775389 5.89257812,224.146484 C6.16601699,224.693362 6.65754854,225.370439 7.3671875,226.177734 Z M6.01953125,227.193359 C5.04947432,227.597007 4.31543218,228.181311 3.81738281,228.946289 C3.31933345,229.711267 3.0703125,230.533199 3.0703125,231.412109 C3.0703125,232.121748 3.29003687,232.693032 3.72949219,233.125977 C4.16894751,233.558921 4.74674121,233.775391 5.46289062,233.775391 C6.20508184,233.775391 6.83007559,233.514977 7.33789062,232.994141 C7.84570566,232.473305 8.09960938,231.851566 8.09960938,231.128906 C8.09960938,230.582029 7.95149888,230.00749 7.65527344,229.405273 C7.359048,228.803057 6.81380605,228.06576 6.01953125,227.193359 Z" id="8" fill="#004D80" fill-rule="nonzero"></path>
            </g>
        </g>
    </g>
</svg>